<svg width="39" height="39" viewBox="0 0 39 39" fill="none" xmlns="http://www.w3.org/2000/svg">
<circle cx="19.5" cy="19.5" r="19.5" fill="#E51C44"/>
<path d="M22.15 20C22.15 23.5 20.15 26.1 16.15 26.4C12.65 26.4 9.64999 24.1421 9.64999 20C9.64999 15.8579 12.5079 13.5 16.65 13.5C20.7921 13.5 22.15 16.5 22.15 20Z" fill="white"/>
<mask id="path-3-inside-1_275_481" fill="white">
<path d="M19.85 20.0036C19.85 21.9366 18.083 24.0036 16.15 24.0036C13.65 24.0036 11.95 21.9366 11.95 20.0036C11.95 18.0706 13.65 16.0036 15.85 16.1036C18.4152 16.2202 19.85 18.0706 19.85 20.0036Z"/>
</mask>
<path d="M15.85 16.1036L15.8954 15.1046L15.85 16.1036ZM18.85 20.0036C18.85 20.6797 18.5312 21.4496 17.982 22.059C17.4318 22.6697 16.7586 23.0036 16.15 23.0036V25.0036C17.4744 25.0036 18.6512 24.304 19.4678 23.3979C20.2853 22.4906 20.85 21.2604 20.85 20.0036H18.85ZM16.15 23.0036C14.2284 23.0036 12.95 21.4108 12.95 20.0036H10.95C10.95 22.4624 13.0716 25.0036 16.15 25.0036V23.0036ZM12.95 20.0036C12.95 19.3175 13.2594 18.556 13.8042 17.9755C14.341 17.4035 15.046 17.0681 15.8046 17.1026L15.8954 15.1046C14.454 15.0391 13.209 15.6872 12.3458 16.6069C11.4906 17.5182 10.95 18.7567 10.95 20.0036H12.95ZM15.8046 17.1026C17.8256 17.1944 18.85 18.5951 18.85 20.0036H20.85C20.85 17.5461 19.0047 15.246 15.8954 15.1046L15.8046 17.1026Z" fill="#E51C44" mask="url(#path-3-inside-1_275_481)"/>
<circle cx="8.5" cy="20" r="1.5" fill="#E51C44" stroke="white"/>
<path d="M17.15 13.5C17.15 13.5 29.8408 13.5062 30.3408 13.5062C30.4597 13.5062 31.03 13.4063 30.8408 14.0062C30.3697 15.5 29.5069 18.0254 29 19.7C28.7641 20.2098 28.6082 20.5062 28.3408 20.5062C27.3408 20.5062 25.8216 20.5 24.65 20.5C22.15 20.5 21.55 23 21.55 23V18.5L17.15 13.5Z" fill="white"/>
</svg>
